<svg viewBox="0 0 1000 1000" xmlns="http://www.w3.org/2000/svg" xmlns:xlink="http://www.w3.org/1999/xlink" id="Layer_2" overflow="hidden"><path d="M284.353 608.065C291.982 608.065 298.211 602.07 298.581 594.533 298.594 594.297 298.6 594.059 298.6 593.821 298.6 585.954 292.221 579.575 284.354 579.575 276.487 579.575 270.108 585.954 270.108 593.821 270.108 594.059 270.115 594.297 270.127 594.533 270.496 602.07 276.725 608.065 284.353 608.065Z" fill="#84A247"/><path d="M729.354 579.575C721.487 579.575 715.108 585.954 715.108 593.821 715.108 594.059 715.115 594.297 715.127 594.533 715.497 602.07 721.726 608.065 729.355 608.065 736.984 608.065 743.213 602.07 743.583 594.533 743.596 594.297 743.601 594.059 743.601 593.821 743.6 585.954 737.221 579.575 729.354 579.575Z" fill="#84A247"/><path d="M172.624 597.235 216.193 597.235C217.963 633.345 247.803 662.065 284.353 662.065 320.903 662.065 350.744 633.345 352.513 597.235L661.193 597.235C662.964 633.345 692.803 662.065 729.353 662.065 765.903 662.065 795.744 633.345 797.513 597.235L833.223 597.235C837.233 597.235 840.873 595.435 843.503 592.535 846.133 589.635 847.763 585.635 847.763 581.205 847.763 577.395 846.534 573.705 844.284 570.805L836.874 561.235C853.424 523.755 847.624 470.045 842.103 439.125 838.933 421.315 829.204 405.745 815.173 396.255 798.362 384.875 769.733 369.325 722.543 352.745 628.623 319.755 462.593 348.425 429.902 375.245 403.852 396.605 352.312 447.245 286.982 454.745 253.033 458.635 223.962 468.565 203.862 477.215 185.972 484.905 174.003 503.655 173.352 524.805L172.642 547.735 161.312 556.065C158.472 558.155 156.203 560.945 154.642 564.165 153.082 567.375 152.232 571.015 152.232 574.765 152.233 587.175 161.363 597.235 172.624 597.235ZM772.464 597.235C770.724 619.485 752.054 637.065 729.354 637.065 706.654 637.065 687.984 619.485 686.245 597.235 686.154 596.115 686.104 594.975 686.104 593.825 686.104 569.975 705.504 550.575 729.354 550.575 753.205 550.575 772.604 569.975 772.604 593.825 772.604 594.975 772.554 596.115 772.464 597.235ZM827.711 487.775C831.047 488.465 833.482 491.324 833.667 494.725 834.488 509.856 832.243 525.441 830.744 533.771 830.103 537.329 827.006 539.908 823.391 539.908L818.393 539.908C813.991 539.908 810.542 536.121 810.954 531.738L813.956 499.712C814.106 498.108 814.771 496.596 815.851 495.401L820.653 490.085C822.429 488.117 825.115 487.238 827.711 487.775ZM681.14 418.279 686.167 394.877C688.366 384.64 696.898 376.976 707.312 375.884L711.576 375.436C712.472 375.733 713.384 376.024 714.259 376.331 760.464 392.565 787.02 407.384 801.16 416.956 809.548 422.63 815.498 432.305 817.491 443.505 817.734 444.867 817.969 446.223 818.194 447.574L704.81 447.574C699.641 447.574 694.609 445.92 690.448 442.854 682.782 437.207 679.14 427.589 681.14 418.279ZM577.688 501.908 552.688 501.908C547.993 501.908 544.188 498.102 544.188 493.408 544.188 488.714 547.993 484.908 552.688 484.908L577.688 484.908C582.382 484.908 586.188 488.714 586.188 493.408 586.188 498.102 582.382 501.908 577.688 501.908ZM435.676 403.089C439.511 399.812 442.822 396.981 445.755 394.577 450.11 391.004 468.396 382.159 506.458 374.23 538.129 367.633 573.261 363.732 606.504 363.053L594.881 429.734C591.947 446.564 577.672 459.069 560.603 459.762L387.017 466.807C377.131 467.208 367.617 463.551 360.567 456.859 392.087 440.323 417.549 418.579 435.676 403.089ZM284.353 550.575C308.204 550.575 327.603 569.975 327.603 593.825 327.603 594.975 327.553 596.115 327.463 597.235 325.723 619.485 307.053 637.065 284.353 637.065 261.653 637.065 242.983 619.485 241.244 597.235 241.153 596.115 241.103 594.975 241.103 593.825 241.104 569.975 260.504 550.575 284.353 550.575ZM199.52 502.575C206.332 502.575 211.853 510.932 211.853 521.242 211.853 531.551 206.332 539.909 199.52 539.909 192.709 539.909 187.187 531.552 187.187 521.242 187.188 510.932 192.709 502.575 199.52 502.575Z" fill="#84A247"/></svg>