<?xml version="1.0" encoding="UTF-8"?>
<!DOCTYPE svg PUBLIC "-//W3C//DTD SVG 1.1//EN" "http://www.w3.org/Graphics/SVG/1.1/DTD/svg11.dtd">
<!-- Creator: CorelDRAW 2020 -->
<svg xmlns="http://www.w3.org/2000/svg" xml:space="preserve" width="500mm" height="300mm" version="1.1" style="shape-rendering:geometricPrecision; text-rendering:geometricPrecision; image-rendering:optimizeQuality; fill-rule:evenodd; clip-rule:evenodd"
viewBox="0 0 50000 30000"
 xmlns:xlink="http://www.w3.org/1999/xlink"
 xmlns:xodm="http://www.corel.com/coreldraw/odm/2003">
 <defs>
  <style type="text/css">
   <![CDATA[
    .fil0 {fill:#F58634;fill-rule:nonzero}
   ]]>
  </style>
 </defs>
 <g id="Capa_x0020_1">
  <metadata id="CorelCorpID_0Corel-Layer"/>
  <g id="_1079531640">
   <g id="_991324384">
    <g>
     <path class="fil0" d="M21678.98 6421.84c-2321.28,123.47 -4265.08,508 -5919.61,1164.17 -525.64,211.67 -1121.83,504.47 -1241.78,613.83 -49.39,42.33 -437.44,296.33 -864.31,564.44 -1344.08,839.61 -2144.89,1432.28 -2885.71,2134.31 -112.89,105.83 -229.31,194.03 -254,194.03 -70.56,0 -790.22,836.08 -793.75,917.22 0,45.86 -10.58,56.44 -28.22,28.22 -31.75,-49.39 -677.33,532.69 -677.33,610.31 0,31.75 -17.64,42.33 -38.81,31.75 -21.17,-14.11 -45.86,7.06 -56.44,49.39 -10.58,42.33 -45.86,74.08 -84.67,74.08 -42.33,0 -67.03,24.69 -67.03,70.56 0,42.33 -17.64,59.97 -49.39,49.39 -28.22,-10.58 -56.44,10.58 -67.03,52.92 -10.58,42.33 -42.33,74.08 -70.56,74.08 -28.22,0 -59.97,31.75 -70.56,74.08 -10.58,42.33 -35.28,63.5 -59.97,49.39 -24.69,-14.11 -49.39,7.06 -59.97,49.39 -10.58,42.33 -42.33,74.08 -67.03,74.08 -28.22,0 -49.39,24.69 -49.39,52.92 0,31.75 -28.22,67.03 -59.97,77.61 -31.75,14.11 -105.83,77.61 -162.28,141.11l-102.31 116.42 -430.39 0c-232.83,0 -483.31,17.64 -550.33,35.28 -123.47,35.28 -455.08,331.61 -416.28,370.42 10.58,14.11 201.08,45.86 419.81,74.08 222.25,28.22 430.39,59.97 462.14,70.56 49.39,14.11 28.22,81.14 -148.17,448.03 -116.42,236.35 -296.33,691.43 -402.17,1005.41 -271.64,804.33 -465.67,1238.25 -564.44,1255.89 -38.81,10.58 -328.08,42.33 -638.53,74.08 -871.36,88.19 -1407.58,229.31 -1813.28,479.78l-119.94 70.56 28.22 324.56c17.64,179.92 31.75,448.03 31.75,603.25 3.53,257.53 10.58,282.22 95.25,345.72 81.14,63.5 426.86,137.58 1030.11,222.25 151.69,21.17 165.81,28.22 162.28,116.42 -3.53,52.92 -14.11,134.06 -28.22,183.44 -24.69,84.67 -35.28,88.19 -423.33,105.83 -522.11,24.69 -532.69,38.81 -299.86,405.69l172.86 271.64 335.14 -24.69c225.78,-14.11 349.25,-38.81 373.94,-74.08 63.5,-81.14 271.64,-59.97 363.36,35.28 127,134.06 292.81,197.56 522.11,197.56 186.97,0 229.31,-14.11 486.83,-183.44l278.69 -183.44 370.42 10.58c409.22,10.58 515.06,42.33 486.83,148.17 -28.22,105.83 38.81,77.61 102.31,-42.33 56.44,-109.36 56.44,-109.36 299.86,-95.25l246.94 14.11 218.72 236.36c123.47,130.53 236.36,239.89 254,239.89 21.17,3.53 239.89,14.11 490.36,28.22l455.08 21.17 74.08 285.75c84.67,310.44 306.92,804.33 483.31,1065.39 63.5,91.72 232.83,289.28 381,440.97l261.05 271.64 -225.77 0c-123.47,0 -1012.47,24.69 -1972.03,52.92 -4180.42,119.94 -6314.72,264.58 -6357.06,423.33 -49.39,176.39 2557.64,335.14 7538.86,458.61 4663.71,112.89 7288.38,137.58 15010.68,137.58 7722.3,0 10346.96,-24.69 15010.69,-137.58 4949.46,-123.47 7549.44,-278.69 7549.44,-455.08 0,-130.53 -1573.39,-257.53 -4635.49,-373.94 -493.89,-17.64 -899.58,-38.81 -906.64,-42.33 -3.53,-7.06 109.36,-105.83 250.47,-218.72 744.36,-585.61 1220.61,-1524 1277.06,-2515.31l21.17 -363.36 254 0c278.69,0 299.86,10.58 486.83,306.92 130.52,204.61 176.38,194.03 264.57,-49.39 119.94,-335.14 112.89,-324.56 310.44,-388.06 158.75,-49.39 204.61,-49.39 275.17,-14.11 179.92,98.78 313.97,-95.25 239.89,-342.19 -21.17,-70.56 -35.28,-130.53 -31.75,-134.06 3.53,-3.53 250.47,-24.69 546.81,-42.33 638.53,-42.33 687.92,-63.5 762,-335.14 88.19,-313.97 137.58,-818.44 91.72,-906.64 -77.61,-141.11 -599.72,-345.72 -1460.5,-564.44 -285.75,-77.61 -532.69,-144.64 -543.28,-155.22 -24.69,-28.22 -116.42,-592.67 -98.78,-613.83 7.06,-7.06 56.44,45.86 109.36,112.89 52.92,70.56 109.36,127 127,127 77.61,0 0,-1054.81 -88.19,-1241.78 -63.5,-130.53 -123.47,-169.33 -437.43,-278.69 -98.78,-35.28 -243.42,-112.89 -317.5,-172.86 -70.56,-63.49 -215.19,-158.74 -317.5,-211.66 -123.47,-67.03 -257.53,-179.92 -381,-331.61 -377.47,-455.08 -1259.42,-1107.72 -2014.36,-1481.67 -451.56,-225.78 -998.36,-444.5 -1633.36,-649.11 -381,-123.47 -627.94,-186.97 -1358.19,-359.83 -282.22,-67.03 -1132.42,-208.14 -1728.61,-285.75 -194.03,-24.69 -328.08,-59.97 -345.72,-88.19 -21.17,-35.28 -112.89,-49.39 -335.14,-49.39 -190.5,0 -328.08,-17.64 -352.78,-42.33 -31.75,-31.75 -59.97,-31.75 -127,7.06 -74.08,38.81 -215.19,35.28 -857.25,-10.58 -423.33,-28.22 -800.81,-52.92 -839.61,-52.92 -38.81,0 -169.33,-17.64 -292.81,-38.81 -123.47,-24.69 -236.36,-31.75 -250.47,-21.17 -17.64,7.06 -63.5,-77.61 -105.83,-194.03 -109.36,-299.86 -225.78,-426.86 -388.06,-419.81 -299.86,7.06 -356.31,-31.75 -578.56,-391.58 -289.28,-472.72 -1287.64,-2159 -1442.86,-2434.17 -70.56,-127 -158.75,-257.53 -194.03,-289.28 -186.97,-162.28 -2187.22,-666.75 -3256.13,-818.44 -1608.67,-225.78 -3866.43,-321.03 -5573.88,-229.31l0.02 -0.06zm11235.95 4335.64c45.86,52.92 56.44,105.83 42.33,218.72 -21.17,176.39 -88.19,363.36 -116.42,335.14 -28.22,-28.22 -116.42,-440.97 -119.94,-546.81 0,-98.78 105.83,-105.83 194.03,-7.06l0 0.01zm-14816.65 9683.74c218.72,-3.53 384.53,-17.64 412.75,-42.33 35.28,-31.75 860.78,-35.28 3273.78,-10.58 9242.76,91.72 12156.7,109.36 12251.95,74.08 59.97,-24.69 388.06,-38.81 797.28,-38.81l694.97 0 134.06 158.75c190.5,229.31 592.67,522.11 945.44,687.92 165.81,77.61 317.5,141.11 338.67,141.11 17.64,0 130.53,134.06 246.94,296.33 119.94,162.28 338.67,409.22 490.36,550.33l275.17 257.53 -1358.19 -24.69c-5453.94,-91.72 -17328.43,-112.89 -20178.87,-31.75l-829.03 21.17 208.14 -225.78c232.83,-257.53 430.39,-532.69 560.92,-793.75 56.44,-109.36 127,-194.03 190.5,-222.25 201.08,-91.72 490.36,-345.72 726.72,-645.58l243.42 -306.92 105.83 77.61c91.72,67.03 148.17,77.61 469.19,77.61z"/>
    </g>
   </g>
  </g>
 </g>
</svg>
